
---------------------------------------------------------------------------------
                                                                                
           SSSSSSSSSSSSSSS       444444444                 AAA                  
         SS:::::::::::::::S     4::::::::4                A:::A                 
        S:::::SSSSSS::::::S    4:::::::::4               A:::::A                
        S:::::S     SSSSSSS   4::::44::::4              A:::::::A               
        S:::::S              4::::4 4::::4             A:::::::::A              
        S:::::S             4::::4  4::::4            A:::::A:::::A             
         S::::SSSS         4::::4   4::::4           A:::::A A:::::A            
          SS::::::SSSSS   4::::444444::::444        A:::::A   A:::::A           
            SSS::::::::SS 4::::::::::::::::4       A:::::A     A:::::A          
               SSSSSS::::S4444444444:::::444      A:::::AAAAAAAAA:::::A         
                    S:::::S         4::::4       A:::::::::::::::::::::A        
                    S:::::S         4::::4      A:::::AAAAAAAAAAAAA:::::A       
        SSSSSSS     S:::::S         4::::4     A:::::A             A:::::A      
        S::::::SSSSSS:::::S       44::::::44  A:::::A               A:::::A     
        S:::::::::::::::SS        4::::::::4 A:::::A                 A:::::A    
         SSSSSSSSSSSSSSS          4444444444AAAAAAA                   AAAAAAA   
                                                                                
                                                                                
---------------------------------------------------------------------------------

                      Despicable.Me.PPVRiP.XVID.AC3.Hive-CM8

---------------------------------------------------------------------------------

RELEASE INFORMATION:

General

Complete name                    : Despicable.Me.PPVRiP.XVID.AC3.Hive-CM8.avi

Format                           : AVI

Format/Info                      : Audio Video Interleave

File size                        : 1.36 GiB

Duration                         : 1h 34mn

Overall bit rate                 : 2 065 Kbps

Writing application              : Nandub v1.0rc2

Writing library                  : Nandub build 1853/release



Video

ID                               : 0

Format                           : MPEG-4 Visual

Format profile                   : Advanced Simple@L5

Format settings, BVOP            : Yes

Format settings, QPel            : Yes

Format settings, GMC             : No warppoints

Format settings, Matrix          : Default (H.263)

Muxing mode                      : Packed bitstream

Codec ID                         : XVID

Codec ID/Hint                    : XviD

Duration                         : 1h 34mn

Bit rate                         : 1 800 Kbps

Width                            : 528 pixels

Height                           : 384 pixels

Display aspect ratio             : 1.375

Frame rate                       : 23.976 fps

Color space                      : YUV

Chroma subsampling               : 4:2:0

Bit depth                        : 8 bits

Scan type                        : Progressive

Bits/(Pixel*Frame)               : 0.370

Stream size                      : 1.19 GiB (87%)

Writing library                  : XviD 1.2.1 (UTC 2008-12-04)



Audio

ID                               : 1

Format                           : AC-3

Format/Info                      : Audio Coding 3

Mode extension                   : CM (complete main)

Codec ID                         : 2000

Duration                         : 1h 34mn

Bit rate mode                    : Constant

Bit rate                         : 256 Kbps

Channel(s)                       : 2 channels

Channel positions                : Front: L R

Sampling rate                    : 48.0 KHz

Bit depth                        : 16 bits

Stream size                      : 173 MiB (12%)

Alignment                        : Split accross interleaves

Interleave, duration             : 42 ms (1.00 video frame)

Interleave, preload duration     : 500 ms

 
http://img510.imageshack.us/img510/2816/dm3.png
 
http://img35.imageshack.us/img35/2261/dm2l.png
 
http://img191.imageshack.us/img191/5402/dm1u.png

---------------------------------------------------------------------------------

MOVIE INFORMATION:

IMDB Rating.......: 7.7/10 

Release Date......: 09/07/10

Theatre Date......: 06/11/10

Runtime...........: 1h 34mn

IMDb URL..........: http://www.imdb.com/title/tt1323594/ 

When a criminal mastermind uses a trio of orphan girls as pawns for a grand scheme, he finds himself profoundly changed by the growing love between them.

---------------------------------------------------------------------------------

Join us at:  http://www.scene4all.net/	       

Enjoy!!!			